<svg id="Layer_2" data-name="Layer 2" xmlns="http://www.w3.org/2000/svg" viewBox="0 0 1000 1000"><defs><style>.cls-1{fill:gray;}.cls-2{fill:#fff;}.cls-3{fill:#39b54a;}.cls-4{fill:#ed1c24;}</style></defs><title>logo</title><rect class="cls-1" x="95" y="145" width="360" height="210" rx="55" ry="55"/><path class="cls-2" d="M400,150a50.15,50.15,0,0,1,50,50V300a50.15,50.15,0,0,1-50,50H150a50.15,50.15,0,0,1-50-50V200a50.15,50.15,0,0,1,50-50H400m0-10H150a60.07,60.07,0,0,0-60,60V300a60.07,60.07,0,0,0,60,60H400a60.07,60.07,0,0,0,60-60V200a60.07,60.07,0,0,0-60-60Z"/><rect class="cls-1" x="545" y="145" width="360" height="210" rx="55" ry="55"/><path class="cls-2" d="M850,150a50.15,50.15,0,0,1,50,50V300a50.15,50.15,0,0,1-50,50H600a50.15,50.15,0,0,1-50-50V200a50.15,50.15,0,0,1,50-50H850m0-10H600a60.07,60.07,0,0,0-60,60V300a60.07,60.07,0,0,0,60,60H850a60.07,60.07,0,0,0,60-60V200a60.07,60.07,0,0,0-60-60Z"/><rect class="cls-3" x="95" y="395" width="360" height="210" rx="55" ry="55"/><path class="cls-2" d="M400,400a50.15,50.15,0,0,1,50,50V550a50.15,50.15,0,0,1-50,50H150a50.15,50.15,0,0,1-50-50V450a50.15,50.15,0,0,1,50-50H400m0-10H150a60.07,60.07,0,0,0-60,60V550a60.07,60.07,0,0,0,60,60H400a60.07,60.07,0,0,0,60-60V450a60.07,60.07,0,0,0-60-60Z"/><rect class="cls-4" x="545" y="645" width="360" height="210" rx="55" ry="55"/><path class="cls-2" d="M850,650a50.15,50.15,0,0,1,50,50V800a50.15,50.15,0,0,1-50,50H600a50.15,50.15,0,0,1-50-50V700a50.15,50.15,0,0,1,50-50H850m0-10H600a60.07,60.07,0,0,0-60,60V800a60.07,60.07,0,0,0,60,60H850a60.07,60.07,0,0,0,60-60V700a60.07,60.07,0,0,0-60-60Z"/></svg>